<svg width="62" height="49" viewBox="0 0 62 49" fill="none" xmlns="http://www.w3.org/2000/svg">
<path d="M31.3253 0.0496064C31.4937 -0.151786 31.5071 0.337753 31.3284 0.146688L31.3253 0.0496064Z" fill="#B5B8B2"/>
<path d="M30.875 0.553601C30.8348 0.420372 31.0114 0.234472 31.1467 0.273718C31.1952 0.410046 31.0134 0.607306 30.875 0.553601Z" fill="#B5B8B2"/>
<path d="M31.6052 0.541211C31.4895 0.404884 31.5877 0.279915 31.6889 0.17767C31.7839 0.359439 31.9171 0.548441 31.85 0.764292C31.9749 0.949161 32.104 1.133 32.229 1.3189C32.2858 1.25383 32.3436 1.18876 32.4035 1.1268C33.1926 2.48181 34.1665 3.72734 34.939 5.09681C34.8822 5.09991 34.7697 5.10714 34.7128 5.11127C34.7221 5.17014 34.7397 5.28788 34.748 5.34675C34.9019 5.42834 34.9659 5.58635 35.032 5.73817C34.9989 5.53781 34.9008 5.33952 34.938 5.134C35.6176 6.25973 36.1546 7.46498 36.6886 8.66405C36.5739 8.68264 36.4665 8.63616 36.3612 8.60001C36.5708 9.0059 36.7609 9.42211 36.9209 9.84968C36.8755 9.5698 36.7856 9.29404 36.6028 9.07303C36.6328 8.95529 36.67 8.84065 36.7196 8.73014C37.0284 9.45619 37.2163 10.2246 37.5096 10.9558C37.4539 11.024 37.3981 11.0921 37.3413 11.1592C37.3237 11.0859 37.2876 10.9382 37.27 10.8649C37.365 11.434 37.5189 11.9906 37.6439 12.5545C37.6356 12.2261 37.553 11.908 37.4735 11.593C37.5344 11.5982 37.6552 11.6085 37.7151 11.6126C37.6945 12.1703 37.9589 12.696 37.8949 13.2589C37.7389 13.0875 37.7451 12.8478 37.7038 12.6351C37.6924 12.8685 37.679 13.1029 37.6666 13.3374L37.8029 13.3147C37.7895 13.6348 37.8928 13.9839 37.7296 14.2803C37.7771 14.2659 37.8721 14.2359 37.9196 14.2214C37.8752 13.8796 37.7079 13.4716 37.9733 13.1825C38.12 14.6149 38.1768 16.0712 37.9579 17.5005C37.9145 17.8403 37.7947 18.1708 37.8226 18.5168C37.7606 18.5261 37.6387 18.5426 37.5768 18.5519C37.6522 18.24 37.7224 17.926 37.741 17.6048C37.6356 18.082 37.4725 18.556 37.5003 19.0518C37.5107 18.9289 37.5303 18.682 37.5406 18.5591C37.6005 18.6273 37.6594 18.6965 37.7183 18.7678C37.6542 18.9888 37.6005 19.216 37.6057 19.4484C37.5509 19.4546 37.4415 19.468 37.3857 19.4742C37.3981 19.3957 37.4229 19.2377 37.4342 19.1592C37.3816 19.2294 37.2773 19.3699 37.2246 19.4391C37.2318 19.6136 37.3733 19.6291 37.5148 19.6343C37.3495 20.193 37.1079 20.7249 36.9437 21.2846C36.8962 21.2041 36.8507 21.1225 36.8073 21.0419C36.765 21.0657 36.6813 21.1122 36.639 21.1349C36.6431 21.1979 36.6524 21.3229 36.6576 21.3848C36.7392 21.3538 36.8208 21.3218 36.9024 21.2877C36.7423 21.7411 36.5171 22.1666 36.3374 22.6107C36.2662 22.5384 36.197 22.4641 36.1298 22.3908C36.0544 22.5426 35.9904 22.7006 35.9016 22.8452C35.7993 23.0528 35.7074 23.2645 35.6176 23.4783C35.7632 23.2232 35.9191 22.965 36.1639 22.7946C35.9894 23.248 35.7301 23.6611 35.4503 24.0546C34.6953 25.1979 33.7968 26.2544 32.7506 27.1395C32.3757 27.4979 31.9646 27.8242 31.5174 28.0876C31.346 28.2157 31.1611 28.0421 31.0238 27.9492C30.5342 27.5443 30.0044 27.186 29.5644 26.7253C29.0883 26.2379 28.5833 25.7783 28.1371 25.264L28.1815 25.2309C28.3974 25.1886 28.4996 25.4447 28.6411 25.5655C28.5864 25.4364 28.4046 25.3125 28.5038 25.1648C28.447 25.1121 28.3912 25.0605 28.3375 25.0089C28.292 25.0295 28.2022 25.0708 28.1578 25.0915C28.1061 24.9665 28.0576 24.8457 28.0091 24.7217C28.0266 24.8178 28.038 24.9149 28.0411 25.014C28.0163 25.0171 27.9677 25.0233 27.944 25.0264C27.3904 24.2983 26.8327 23.565 26.4134 22.7491C25.9404 21.8227 25.5366 20.8581 25.2474 19.8584C25.108 19.3224 24.9355 18.7863 24.9396 18.2266C25.0543 18.3608 25.0904 18.5354 25.1472 18.6996C25.1668 18.6965 25.2071 18.6893 25.2267 18.6862C25.1668 18.3877 25.0863 18.0934 25.014 17.799C25.0223 17.9787 24.9809 18.1522 24.8611 18.2906C24.8002 17.5418 24.6288 16.8013 24.6463 16.0474C24.6618 15.2914 24.6071 14.5313 24.7207 13.7805C24.7486 13.1267 24.9024 12.4895 24.9675 11.8399C25.0832 11.9834 25.1183 12.1579 25.109 12.3397C25.1865 12.0753 25.2918 11.8078 25.2443 11.528C25.1834 11.6601 25.1297 11.7965 25.0398 11.9121C25.1266 10.8494 25.5831 9.86827 25.8857 8.85924C25.9414 8.92431 25.9972 8.99144 26.0519 9.05857C26.0055 9.18663 25.959 9.31573 25.9125 9.44483C25.9941 9.26719 26.1005 9.10298 26.2089 8.94083C26.1996 8.89332 26.1831 8.79934 26.1748 8.75183C26.0963 8.78385 26.0189 8.81793 25.9445 8.85408C25.9807 8.72601 26.0519 8.46988 26.0881 8.34182C26.149 8.40998 26.2058 8.48434 26.2647 8.55767C26.306 8.52772 26.3876 8.46678 26.4279 8.43683C26.4165 8.38623 26.3928 8.28605 26.3804 8.23544C26.2998 8.26539 26.2213 8.29741 26.1449 8.33252C26.2802 8.03611 26.4155 7.73764 26.5095 7.42471C26.5663 7.48977 26.622 7.55794 26.6788 7.6261C26.6995 7.60131 26.7408 7.55174 26.7615 7.52695C26.9267 7.28734 26.7604 6.98784 26.8947 6.74307C27.2727 5.97261 27.7292 5.24347 28.1485 4.49574C28.1722 4.49677 28.2197 4.49987 28.2435 4.5009C28.2631 4.54221 28.3013 4.62483 28.321 4.66718C28.3922 4.52982 28.3809 4.2489 28.6101 4.32636C28.4449 4.08572 28.8002 3.94733 28.9375 3.79861C28.922 3.77279 28.889 3.72115 28.8725 3.69533C28.7547 3.76453 28.6391 3.83785 28.5203 3.90498C29.1585 2.76169 29.8939 1.66178 30.7439 0.665143C30.7428 0.733307 30.7397 0.870669 30.7387 0.938833C30.6716 1.00803 30.6127 1.08239 30.5476 1.15262C30.7242 0.98324 30.8864 0.79734 31.0238 0.594915C31.1436 0.451358 31.2551 0.168377 31.4937 0.287147C31.5143 0.400753 31.5329 0.515391 31.5505 0.631063C31.5639 0.608341 31.5918 0.563932 31.6052 0.541211ZM36.9406 9.98291C36.7743 10.2865 37.2824 10.0056 36.9406 9.98291V9.98291Z" fill="#B5B8B2"/>
<path d="M31.9068 0.685799C32.0844 0.688897 32.261 0.924372 32.2383 1.09995C32.0627 1.1144 31.8872 0.848978 31.9068 0.685799Z" fill="#B5B8B2"/>
<path d="M12.3614 4.05577C12.9015 4.0031 13.4458 4.01859 13.9859 4.0661C13.6141 4.34701 13.107 4.15285 12.6764 4.19519C12.2013 4.12083 11.845 4.47198 11.4618 4.6806C11.6043 4.315 11.9792 4.08262 12.3614 4.05577Z" fill="#B5B8B2"/>
<path d="M28.3695 4.04131C28.4284 3.95972 28.4965 3.94526 28.5761 3.99793C28.5451 4.13529 28.4707 4.29331 28.3468 4.3656C28.2063 4.33772 28.3623 4.12703 28.3695 4.04131Z" fill="#B5B8B2"/>
<path d="M48.6916 4.24993C48.7608 3.99174 49.0469 4.08985 49.2348 4.05473C49.7398 4.03821 50.2521 4.01962 50.7468 4.14252C50.6848 4.20242 50.6218 4.26233 50.5588 4.32119C50.5062 4.29228 50.4019 4.23547 50.3492 4.20655C49.7987 4.2365 49.2441 4.22618 48.6916 4.24993Z" fill="#B5B8B2"/>
<path d="M14.7574 4.46681C14.4775 4.3718 14.1698 4.32945 13.9229 4.15698C14.1904 4.1704 14.459 4.20139 14.7275 4.21688C14.7347 4.27885 14.7502 4.40381 14.7574 4.46681Z" fill="#B5B8B2"/>
<path d="M48.3291 4.252C48.3229 4.10844 48.6905 4.10225 48.6926 4.24683C48.5718 4.31913 48.4509 4.32119 48.3291 4.252Z" fill="#B5B8B2"/>
<path d="M11.5909 4.67234C11.8285 4.51433 12.0567 4.30157 12.3542 4.26956C12.8261 4.21792 13.3043 4.22721 13.7784 4.25923C14.1574 4.46372 14.6376 4.42241 15.0476 4.57423C14.9784 4.55564 14.8411 4.51846 14.7719 4.49987C14.837 4.441 14.9041 4.38419 14.9733 4.32842C15.9451 4.66408 16.9036 5.04001 17.8093 5.53162C18.1057 5.55021 17.8609 5.70822 17.7928 5.78052C17.8847 5.82389 17.9704 5.87966 18.0665 5.91994C18.0582 5.83835 18.052 5.75779 18.0489 5.67724C19.691 6.59951 21.1287 7.85434 22.3515 9.28062C22.9092 9.9354 23.3626 10.6676 23.8129 11.3978C24.1165 11.7748 23.8914 12.2829 23.9306 12.7177C23.7168 12.4988 23.8046 12.1858 23.784 11.9121C23.8098 11.6292 23.596 11.4174 23.438 11.2109C23.6693 11.5362 23.8552 11.9235 23.7395 12.3325C23.628 12.6971 23.6084 13.0751 23.6642 13.452C23.6982 13.1794 23.6507 12.8613 23.8511 12.6423C23.8945 13.1659 23.7478 13.6751 23.7302 14.1956C23.7199 15.3544 23.6755 16.5204 23.8841 17.6668C23.8242 17.736 23.7633 17.8042 23.7024 17.8723C23.6931 17.6379 23.6848 17.4066 23.6672 17.1731C23.628 17.5604 23.6528 17.9539 23.7602 18.3288C23.7602 18.2204 23.7581 18.0045 23.7581 17.8961C23.8118 17.8982 23.9213 17.9023 23.9761 17.9044C23.8986 18.2958 24.0504 18.6727 24.1392 19.0476C24.7197 21.6575 25.99 24.1382 27.8645 26.0551C28.165 26.4011 28.5172 26.6985 28.8312 27.0331C28.3086 27.0393 27.8304 26.8121 27.3326 26.6892C25.3651 26.1418 23.5175 25.2288 21.8103 24.1165C21.8681 24.0587 21.927 24.0029 21.9879 23.9482C21.7287 23.7695 21.4127 23.6311 21.2671 23.3347C21.2443 23.3512 21.1979 23.3843 21.1751 23.3998C21.0636 23.3223 20.9531 23.248 20.8416 23.1736C21.1442 23.4401 21.487 23.6549 21.8258 23.8738C21.7659 23.9317 21.706 23.9895 21.6451 24.0463C21.4581 23.8635 21.2557 23.6993 21.0388 23.5547C20.1496 22.9361 19.3461 22.2059 18.5023 21.5305C18.5787 21.4675 18.6603 21.4106 18.7357 21.3476C18.3773 21.1793 18.0975 20.8994 17.8279 20.6164C18.0706 20.8922 18.3371 21.1545 18.5085 21.484C17.3239 20.5039 16.2261 19.4194 15.1644 18.3051C14.6149 17.6307 14.1409 16.8953 13.7422 16.1218C13.1205 15.0725 12.8984 13.8424 12.789 12.6444C12.8323 11.8223 12.9552 11.0043 12.9635 10.1802C13.2 10.3898 13.1308 10.7162 13.1122 10.9961C13.0688 11.3359 13.012 11.6746 13.0172 12.0196C13.0947 11.4288 13.2031 10.8401 13.1649 10.2421C13.1008 10.0821 13.0616 9.91475 13.0203 9.7495C12.9996 9.88996 12.9779 10.0314 12.9552 10.1729C12.7735 9.60697 12.5907 9.02965 12.2292 8.54837C11.6952 7.80994 11.3678 6.93827 11.2315 6.04078C11.214 5.76296 11.1386 5.42524 11.3606 5.20526C11.3854 5.65762 11.4092 6.11307 11.5114 6.55614C11.5021 6.30827 11.4722 6.06247 11.4143 5.82183C11.4536 5.4366 11.5259 5.05447 11.5909 4.67234ZM16.318 5.00903C16.3252 5.35088 16.6299 4.86237 16.318 5.00903V5.00903ZM16.3541 11.7438C17.1339 12.8943 18.6138 13.1308 19.6817 13.9157C19.3605 13.2579 19.2149 12.5329 18.9206 11.8636C18.6552 11.2636 18.461 10.5912 17.9539 10.1409C17.6874 9.86517 17.3094 9.65035 16.918 9.67101C16.0629 9.90648 15.8563 11.089 16.3541 11.7438ZM24.1651 25.2381C24.1764 25.581 24.4728 25.0812 24.1651 25.2381V25.2381Z" fill="#B5B8B2"/>
<path d="M47.697 4.4255C47.7992 4.29641 48.0161 4.22721 48.169 4.30157C48.1359 4.44513 47.7806 4.55873 47.697 4.4255Z" fill="#B5B8B2"/>
<path d="M48.2909 4.33565C48.9487 4.22824 49.6077 4.27988 50.2686 4.26749C50.5506 4.29951 50.7489 4.52672 50.9802 4.66821C50.9017 4.51123 50.816 4.35837 50.7385 4.20242C51.1847 4.4379 51.3696 4.93983 51.4223 5.41388C51.4853 5.89102 51.3975 6.3692 51.3551 6.84428C51.2952 6.85358 51.1754 6.87423 51.1155 6.88353L51.1362 6.66355C50.9544 7.39889 50.5681 8.05367 50.1561 8.67954C50.5547 8.13836 50.9193 7.55277 51.0835 6.89385C51.1393 6.96202 51.195 7.03122 51.2518 7.10144C50.9121 7.90598 50.4205 8.63203 50.0342 9.41178C49.7285 10.0345 49.6851 10.7503 49.8132 11.4247C50.1426 13.7805 49.2235 16.1641 47.7414 17.9725C47.6918 17.7246 47.8953 17.516 47.9831 17.2981C47.8829 17.4437 47.8034 17.6203 47.6195 17.6751C47.5793 17.7794 47.5421 17.8858 47.5049 17.9921C47.5679 17.9973 47.6939 18.0076 47.7569 18.0128C47.4367 18.304 47.1631 18.6397 46.8852 18.9702C45.9506 19.9668 44.9044 20.8457 43.8964 21.7649C43.1837 22.3701 42.436 22.9319 41.7038 23.5113C41.5819 23.6363 41.4094 23.5227 41.2669 23.5175C41.3382 23.5413 41.4807 23.5888 41.5519 23.6125C41.3206 23.7809 41.0924 23.9544 40.8858 24.1537C40.8218 24.0959 40.7588 24.037 40.6989 23.9781L40.8435 23.8831C40.7763 23.9203 40.7092 23.9585 40.6431 23.9967C40.6534 24.0845 40.6627 24.1744 40.6741 24.2642C40.2475 24.4491 39.8809 24.7393 39.4761 24.9614C37.7854 25.9187 35.9408 26.5932 34.0581 27.0496C34.1768 26.8348 34.308 26.6272 34.4454 26.4248C34.5032 26.4795 34.561 26.5363 34.6189 26.5942C34.5486 26.651 34.4072 26.7636 34.3369 26.8204C34.4536 26.7563 34.5714 26.6923 34.6891 26.6293C34.6767 26.5198 34.6653 26.4103 34.6561 26.3029C35.3749 25.5573 36.0431 24.7548 36.6018 23.8811C37.1802 22.8782 37.7183 21.8393 38.0735 20.7352C38.1407 20.8168 38.2068 20.9015 38.2739 20.9862C38.3658 20.7228 38.4257 20.4512 38.4681 20.1765C38.3617 20.381 38.2997 20.6133 38.1489 20.793C38.1809 20.2674 38.4205 19.7881 38.5166 19.2749C38.6013 18.9702 38.5961 18.6376 38.7273 18.3515C38.9359 18.3805 38.8202 18.681 38.8523 18.8359C38.8801 18.4548 38.9814 18.082 38.971 17.6988C38.9287 17.8579 39.0206 18.2669 38.7428 18.1553C38.9029 17.5005 38.8832 16.8241 38.9824 16.161C39.0795 15.0518 38.9266 13.9457 38.8368 12.8427C38.8233 12.4461 38.5414 11.9906 38.8213 11.6343C39.2809 10.9558 39.662 10.2204 40.2062 9.60284C40.5615 9.19593 40.8724 8.73634 41.333 8.43683C41.2287 8.62893 41.1048 8.80967 40.9798 8.98937C41.1368 8.84891 41.3051 8.72188 41.4724 8.59278C41.5953 8.42341 41.7203 8.25506 41.8659 8.10428C41.6996 8.20755 41.5385 8.40482 41.3247 8.35318C42.8367 6.79471 44.6709 5.55124 46.6818 4.72914C46.6456 4.80867 46.6136 4.88923 46.5837 4.96978C46.6343 4.98114 46.7344 5.00386 46.784 5.01419C46.816 4.97288 46.879 4.88819 46.9111 4.84688C46.8326 4.79111 46.7561 4.73328 46.6818 4.67544C46.7995 4.64859 47.1951 4.42344 47.1114 4.72604L47.1176 4.77459C47.257 4.78388 47.3655 4.68267 47.4832 4.62277L47.2488 4.65891C47.257 4.60005 47.2746 4.48334 47.2839 4.42447C47.3799 4.41828 47.5731 4.40588 47.6691 4.39968L47.6671 4.5515C47.8819 4.50193 48.0915 4.43067 48.2909 4.33565ZM45.4445 9.77945C44.9983 9.9261 44.6596 10.2896 44.4097 10.6738C43.7848 11.7221 43.5411 12.9449 42.9483 14.0097C43.5504 13.6679 44.1804 13.3777 44.7877 13.043C45.2875 12.7817 45.8132 12.5205 46.1778 12.0764C46.5971 11.562 46.6704 10.8009 46.3792 10.2091C46.1902 9.90751 45.8091 9.65448 45.4445 9.77945ZM37.6904 22.0685C37.5179 22.3701 38.0312 22.0944 37.6904 22.0685V22.0685ZM34.9039 26.5797C34.939 26.9216 35.2003 26.4021 34.9039 26.5797V26.5797Z" fill="#B5B8B2"/>
<path d="M11.3245 5.16911C11.3079 5.02142 11.341 4.72501 11.5166 4.71159C11.5475 4.84791 11.499 5.20319 11.3245 5.16911Z" fill="#B5B8B2"/>
<path d="M26.6086 7.32143C26.6169 7.17787 26.683 7.10351 26.8059 7.10041C26.7966 7.16134 26.778 7.28218 26.7677 7.34208C26.7284 7.33692 26.6489 7.32659 26.6086 7.32143Z" fill="#B5B8B2"/>
<path d="M37.4735 11.2357C37.5055 11.2512 37.5685 11.2801 37.5995 11.2956C37.6356 11.5104 37.3816 11.5073 37.4177 11.2945L37.4735 11.2357Z" fill="#B5B8B2"/>
<path d="M7.60851 18.7523C8.21682 18.5994 8.83339 18.4404 9.46339 18.4176C10.6439 18.4135 11.8491 18.3495 12.9934 18.6996C14.5932 19.1458 15.8811 20.256 17.0977 21.3353C17.6389 21.8764 18.21 22.3887 18.8111 22.8617C18.7584 22.9123 18.7047 22.9629 18.6521 23.0135C18.5591 22.9237 18.4651 22.8349 18.3711 22.7491C18.5147 22.9588 18.714 23.1395 18.9856 23.0383C19.4649 23.4421 19.9286 23.8728 20.4677 24.1992C20.4109 24.2529 20.3551 24.3066 20.2983 24.3592C20.5689 24.5338 20.825 24.729 21.076 24.9304L21.0936 24.8767C21.391 25.1101 21.7194 25.3022 22.0747 25.4323C21.8237 25.2381 21.4106 25.1834 21.3342 24.8333C21.8124 25.0729 22.2699 25.3528 22.715 25.6502C22.3897 25.7597 22.5684 25.8031 22.7594 25.8403C22.745 25.8857 22.7161 25.9776 22.7026 26.0231C22.8627 25.7566 23.0569 26.0654 23.0713 26.2503C23.0662 26.2007 23.0558 26.1036 23.0517 26.0551C23.2707 26.1635 23.5154 26.2337 23.7055 26.3959L23.6012 26.4692C23.6259 26.4868 23.6745 26.5219 23.6993 26.5394C23.7106 26.5054 23.7344 26.4351 23.7468 26.4C23.7313 26.2978 23.7168 26.1955 23.7024 26.0954C23.974 26.2327 24.3096 26.304 24.4893 26.5756C24.2983 26.5209 24.1124 26.4661 23.9254 26.4083C24.2332 26.557 24.5503 26.6871 24.8488 26.8575C24.7765 26.7821 24.7517 26.6985 24.7754 26.6045C24.9861 26.5808 25.1761 26.713 25.3734 26.7698C25.7524 26.9298 26.1831 26.9804 26.5177 27.2355C26.4392 27.2397 26.2843 27.2469 26.2069 27.251C26.5818 27.3481 26.9608 27.4452 27.3099 27.6187C27.4834 27.6869 27.6486 27.8253 27.848 27.7829C27.9998 27.7592 28.1599 27.6776 28.3086 27.7664C29.5345 28.2518 30.7139 28.9944 31.4565 30.1098C31.9781 29.2226 32.8363 28.5802 33.7544 28.1454C33.708 28.4088 33.4219 28.4914 33.237 28.6401C33.7152 28.3747 34.1934 28.0845 34.7418 27.9905C34.7593 27.9616 34.7944 27.9048 34.812 27.8769C34.7407 27.8211 34.6726 27.7664 34.6044 27.7106C35.1239 27.5867 35.6083 27.3522 36.1216 27.2108C36.4035 27.2459 36.6917 27.2779 36.9571 27.1447C36.735 27.1746 36.5109 27.2252 36.2909 27.157C39.1073 26.274 41.7792 24.8601 43.98 22.8803C44.577 22.4166 45.0748 21.8454 45.6665 21.3755C46.4401 20.6247 47.2415 19.8594 48.2124 19.3709C48.1648 19.4463 48.0709 19.5971 48.0234 19.6725C48.4922 19.3523 49.0293 19.1623 49.5498 18.9464C49.5942 18.9537 49.6841 18.9681 49.7285 18.9753C49.7584 18.9506 49.8183 18.902 49.8473 18.8783C49.7698 18.8845 49.6149 18.8969 49.5374 18.9041C49.5395 18.8514 49.5436 18.7471 49.5467 18.6944C50.9348 18.4218 52.361 18.3546 53.7749 18.43C54.2686 18.5147 54.8294 18.4848 55.2363 18.8235C54.7664 19.2893 54.0703 19.4711 53.6768 20.0236C53.62 19.9606 53.5642 19.8966 53.5105 19.8336C53.4785 19.8501 53.4134 19.8852 53.3814 19.9018L53.4919 19.8708C53.4857 19.9513 53.4734 20.1135 53.4672 20.194C53.2895 20.2529 53.1067 20.2787 52.9218 20.2767C52.8485 20.3304 52.7752 20.3841 52.7029 20.4388C52.5366 20.8209 52.1927 21.0771 51.9407 21.3972C52.1917 21.1752 52.3755 20.8736 52.6791 20.7135C52.7432 20.5989 52.8072 20.4842 52.8847 20.3789L52.9673 20.5617C52.3941 21.2031 51.8405 21.863 51.3128 22.5446C51.3066 22.4765 51.2931 22.3402 51.287 22.271C51.3479 22.1883 51.4088 22.1057 51.4697 22.0231C50.9203 22.6469 50.565 23.4204 49.9722 24.005C49.8731 24.1455 49.776 24.2869 49.683 24.4315C49.9774 24.1083 50.248 23.7644 50.5062 23.4122C50.7385 23.0961 50.8728 22.6613 51.29 22.5395C49.8855 24.887 47.8189 26.8359 45.3898 28.0959C45.397 28.036 45.4125 27.9151 45.4207 27.8542C45.4683 27.8201 45.5622 27.753 45.6097 27.7199C45.4992 27.7932 45.3846 27.8604 45.2731 27.9327C45.239 27.9451 45.1708 27.9688 45.1367 27.9812C45.2183 28.0287 45.2999 28.0804 45.3805 28.1351C44.9384 28.2508 44.546 28.5048 44.0947 28.5926C44.199 28.4687 44.3291 28.3695 44.4541 28.2683C44.3353 28.2797 44.2176 28.291 44.1008 28.3034C44.0854 28.3509 44.0554 28.4449 44.0399 28.4914C43.7631 28.5296 43.4977 28.6164 43.2333 28.7042C43.288 28.7186 43.3965 28.7475 43.4512 28.761C43.4399 28.7878 43.4182 28.8426 43.4079 28.8694C43.0784 28.8436 42.7458 28.7744 42.4174 28.8415C41.5024 29.076 40.5336 29.0264 39.6031 28.9252C39.5473 28.9479 39.4915 28.9716 39.4368 28.9964C40.1205 29.0553 40.8052 29.0181 41.4889 29.0181C41.6356 28.9851 41.7502 29.0904 41.8638 29.1617C41.0479 29.2278 40.2289 29.2082 39.4141 29.1452C39.1414 29.1038 38.8646 29.0543 38.5899 29.1069C38.591 29.0532 38.592 28.9458 38.593 28.8911C38.8306 28.9014 39.0702 28.9117 39.3098 28.9179C38.9132 28.856 38.5145 28.8064 38.1148 28.7651L38.1055 28.8343C38.2192 28.8333 38.4464 28.8291 38.56 28.8281C38.4928 28.8911 38.4247 28.9531 38.3565 29.014C38.0374 28.9272 37.711 28.8653 37.3805 28.8467C37.5561 28.7124 37.7802 28.7124 37.9899 28.6866C37.8205 28.6897 37.648 28.6918 37.4797 28.698C37.4673 28.6453 37.4435 28.5399 37.4311 28.4873C37.3155 28.5286 37.1998 28.5709 37.0852 28.6133C37.144 28.6288 37.2628 28.6587 37.3217 28.6742C37.3124 28.7052 37.2958 28.7672 37.2866 28.7981C36.6059 28.5937 35.8902 28.572 35.1931 28.5224C35.2014 28.4945 35.2169 28.4398 35.2251 28.4119C35.5897 28.3871 35.9749 28.4542 36.3178 28.291C36.0142 28.3602 35.7033 28.3809 35.3935 28.3819C35.002 28.3799 34.6344 28.5265 34.2584 28.6112C34.3359 28.6215 34.4918 28.6443 34.5693 28.6556C34.5559 28.6804 34.5301 28.731 34.5166 28.7568C33.5789 29.0481 32.7103 29.7008 32.3116 30.6169C31.9553 31.3037 31.9657 32.0958 31.8448 32.8415C31.6631 33.5469 31.3976 34.2409 30.9814 34.843C30.2864 35.7467 29.299 36.4758 28.1557 36.6648C27.9512 36.6907 27.7364 36.6948 27.5453 36.6091C27.4152 36.3664 27.7168 36.2218 27.8882 36.1278C28.6928 35.7374 29.3744 35.1157 29.8856 34.3876C30.4041 33.4808 30.7904 32.4222 30.5972 31.3646C30.4206 30.6768 30.1376 29.9673 29.5572 29.5211C28.8177 28.9293 27.8748 28.5616 26.9257 28.5472C25.7917 28.6546 24.6845 28.9417 23.5619 29.1224C22.6923 29.266 21.8082 29.0987 20.9376 29.2133C20.9335 29.1596 20.9242 29.0522 20.919 28.9975C21.6141 29.0646 22.3143 29.0305 23.0114 29.0088C22.367 28.9665 21.7205 29.015 21.077 28.9624C20.9304 28.8394 20.73 28.8518 20.5586 28.8994C20.6205 28.9241 20.7455 28.9747 20.8085 28.9995C20.6722 29.1813 20.3902 29.0439 20.2074 29.1121C20.2095 29.0584 20.2126 28.95 20.2147 28.8963C20.2921 28.9014 20.447 28.9107 20.5245 28.9148C20.2828 28.8663 20.0401 28.824 19.7953 28.793C19.5248 28.667 19.2036 28.6205 18.9898 28.3995C18.9505 28.4191 18.8741 28.4584 18.8359 28.478C18.7564 28.3396 18.6231 28.3034 18.4724 28.3272C18.5601 28.4119 18.649 28.4976 18.7326 28.5895C18.1419 28.478 17.6182 28.1692 17.0667 27.9471C16.3118 27.565 15.5723 27.1271 14.9289 26.5735C14.8907 26.4041 14.8401 26.2379 14.7946 26.0716C14.6614 26.1191 14.6882 26.2441 14.6913 26.3515C14.649 26.3608 14.5643 26.3783 14.522 26.3876C14.397 26.1336 14.1553 25.9755 13.9601 25.7814C12.9707 24.8457 12.1476 23.754 11.3606 22.6469C11.4226 22.649 11.5445 22.6541 11.6054 22.6562C11.7045 22.7997 11.8057 22.9423 11.909 23.0848C11.7355 22.8431 11.6095 22.5746 11.4722 22.3133C11.4339 22.3019 11.3596 22.2772 11.3224 22.2658C11.3534 22.3815 11.405 22.4982 11.3771 22.6221C10.807 21.8578 10.2256 21.0915 9.50677 20.4605C8.96662 19.9709 8.40272 19.4783 7.71799 19.2046C7.71386 19.1427 7.7056 19.0198 7.70146 18.9578C8.29118 19.2542 8.87058 19.5929 9.33223 20.0722C8.91395 19.5238 8.27156 19.249 7.70766 18.8845C7.62297 18.9661 7.53622 19.0456 7.44637 19.121C7.38647 18.9774 7.43397 18.7709 7.60851 18.7523Z" fill="#B5B8B2"/>
<path d="M48.4737 19.3162C48.6782 19.026 49.0727 18.8359 49.4228 18.8597C49.4176 18.8855 49.4073 18.9371 49.4021 18.963C49.1016 19.1024 48.7887 19.2139 48.4737 19.3162Z" fill="#B5B8B2"/>
<path d="M48.4241 19.2759C48.4798 19.3317 48.4798 19.3317 48.4241 19.2759V19.2759Z" fill="#B5B8B2"/>
<path d="M48.2289 19.3792C48.2847 19.4349 48.2847 19.4349 48.2289 19.3792V19.3792Z" fill="#B5B8B2"/>
<path d="M53.0757 20.3087C53.1315 20.3655 53.1315 20.3655 53.0757 20.3087V20.3087Z" fill="#B5B8B2"/>
<path d="M36.1577 22.6603C36.1844 22.6803 36.1844 22.6803 36.1577 22.6603V22.6603Z" fill="#B5B8B2"/>
<path d="M20.5193 24.4801C20.5173 24.4212 20.5142 24.3045 20.5121 24.2456C20.7837 24.4408 21.0636 24.6257 21.3414 24.8147C21.2691 24.8209 21.1245 24.8343 21.0522 24.8405C20.8777 24.7156 20.699 24.5958 20.5193 24.4801Z" fill="#B5B8B2"/>
<path d="M22.714 25.6822C22.7667 25.739 22.7667 25.739 22.714 25.6822V25.6822Z" fill="#B5B8B2"/>
<path d="M22.904 25.7938C23.0269 25.7535 23.123 25.7907 23.1932 25.9043C23.1725 26.0757 22.8328 25.9342 22.904 25.7938Z" fill="#B5B8B2"/>
<path d="M23.3368 26.0169C23.3645 26.0424 23.3645 26.0424 23.3368 26.0169V26.0169Z" fill="#B5B8B2"/>
<path d="M23.5443 26.0923C23.5991 26.1491 23.5991 26.1491 23.5443 26.0923V26.0923Z" fill="#B5B8B2"/>
<path d="M24.4893 26.5012L24.5709 26.4527L24.6277 26.5012C24.6153 26.5353 24.5906 26.6014 24.5792 26.6345L24.4935 26.5962L24.4893 26.5012Z" fill="#B5B8B2"/>
<path d="M26.5353 27.2149C26.5539 27.5557 26.8472 27.0558 26.5353 27.2149V27.2149Z" fill="#B5B8B2"/>
<path d="M26.8544 27.3171C26.8647 27.659 27.1684 27.1643 26.8544 27.3171V27.3171Z" fill="#B5B8B2"/>
<path d="M27.251 27.439C27.3099 27.4917 27.3099 27.4917 27.251 27.439V27.439Z" fill="#B5B8B2"/>
<path d="M27.4576 27.5299C27.4617 27.8717 27.7746 27.3812 27.4576 27.5299V27.5299Z" fill="#B5B8B2"/>
<path d="M27.7498 27.6425L27.8387 27.5908C28.1051 27.6197 27.7529 27.8655 27.7498 27.6425Z" fill="#B5B8B2"/>
<path d="M33.8133 28.2497C33.9104 27.8872 34.3566 27.8531 34.6571 27.7881C34.5548 27.8717 34.4402 27.9358 34.3287 28.0039C34.1727 28.1165 33.992 28.1867 33.8133 28.2497Z" fill="#B5B8B2"/>
<path d="M33.7668 28.164C33.8236 28.2177 33.8236 28.2177 33.7668 28.164V28.164Z" fill="#B5B8B2"/>
<path d="M18.8297 28.543C19.0073 28.3509 18.998 28.8405 18.8276 28.6401L18.8297 28.543Z" fill="#B5B8B2"/>
<path d="M34.6974 28.6195C34.7242 28.4955 34.9659 28.4542 35.0444 28.5575C35.0506 28.7083 34.7728 28.6876 34.6974 28.6195Z" fill="#B5B8B2"/>
<path d="M43.5762 28.7227C43.6144 28.5575 43.9552 28.4687 44.0513 28.5988C43.9356 28.7011 43.7167 28.8085 43.5762 28.7227Z" fill="#B5B8B2"/>
<path d="M19.0993 28.7031C19.2139 28.572 19.5981 28.6721 19.659 28.8302C19.4772 28.9045 19.2449 28.8178 19.0993 28.7031Z" fill="#B5B8B2"/>
<path d="M19.8274 28.8735C19.9565 28.7847 20.0391 28.8054 20.0752 28.9365C19.9451 29.0243 19.8625 29.0026 19.8274 28.8735Z" fill="#B5B8B2"/>
<path d="M42.6436 28.9314C42.6374 28.7837 43.003 28.7816 42.9989 28.9272C42.8801 29.0016 42.7613 29.0026 42.6436 28.9314Z" fill="#B5B8B2"/>
<path d="M42.0239 29.0274C42.0776 28.8973 42.4577 28.8777 42.5062 29.0192C42.3627 29.0946 42.1685 29.0946 42.0239 29.0274Z" fill="#B5B8B2"/>
<path d="M12.7786 41.5509C13.3312 41.3072 13.9405 41.3237 14.5312 41.3444C15.7799 41.4208 17.0388 42.1076 17.5965 43.2612C17.9952 43.9542 18.0809 44.766 18.0623 45.5509C18.0014 45.4838 17.9415 45.4156 17.8837 45.3474C17.9115 44.7164 17.8372 44.041 17.484 43.5019C17.7112 44.0275 17.8671 44.5966 17.8289 45.1739C17.7597 45.7017 17.6482 46.2253 17.4551 46.7231C17.5077 46.5971 17.5604 46.4711 17.6131 46.3451C17.6719 46.4112 17.7308 46.4783 17.7886 46.5486C17.3476 47.382 16.6608 48.1029 15.7623 48.4355C14.7378 48.7887 13.5801 48.8021 12.5628 48.4138C11.4969 47.9552 10.6397 46.9637 10.459 45.8019C10.332 45.2214 10.4042 44.6266 10.4569 44.043C10.5106 44.0368 10.616 44.0244 10.6697 44.0182C10.6614 44.1587 10.6542 44.3002 10.648 44.4427C10.7048 44.2052 10.7575 43.9676 10.8029 43.728C10.7853 43.7972 10.7513 43.9336 10.7337 44.0017C10.6697 43.9336 10.6067 43.8644 10.5457 43.7952C10.9444 42.7872 11.7097 41.868 12.7786 41.5509ZM12.8798 42.1892C12.3789 42.529 12.0164 43.0526 11.8347 43.6279C11.7624 43.8551 11.6828 43.4399 11.687 43.4254C11.6477 43.6423 11.5765 43.8509 11.5372 44.0678C11.4608 44.0709 11.309 44.0782 11.2325 44.0812C11.2997 44.0885 11.4339 44.104 11.5011 44.1112C11.468 44.3074 11.437 44.5047 11.405 44.703C11.4226 44.7371 11.4567 44.8042 11.4742 44.8372C11.4804 44.6152 11.4907 44.389 11.5052 44.1701C11.5682 44.2362 11.6291 44.3043 11.689 44.3756C11.6343 44.6854 11.6353 45.0015 11.6777 45.3144C11.6488 45.3216 11.592 45.3361 11.563 45.3433C11.53 45.2276 11.499 45.112 11.4711 44.9973C11.4525 45.0211 11.4164 45.0665 11.3978 45.0892C11.4184 45.27 11.4401 45.4549 11.5238 45.6211C11.6023 45.9589 11.6766 46.3007 11.8274 46.6167C11.7128 46.2367 11.593 45.8566 11.5465 45.461C11.6085 45.4683 11.7345 45.4817 11.7975 45.4879C11.7272 45.9051 11.9493 46.2893 12.0701 46.6756C12.6041 47.6671 13.8021 48.4272 14.9413 48.0606C15.689 47.8964 16.3221 47.2911 16.507 46.5455C16.5772 46.656 16.6175 46.7789 16.6516 46.9069C16.696 46.8099 16.7424 46.7148 16.792 46.6209C16.7879 46.5341 16.7807 46.3585 16.7776 46.2707C16.7104 46.3833 16.6495 46.499 16.57 46.6054C16.6557 45.9909 16.8344 45.3753 16.729 44.7526C16.6547 43.9718 16.3004 43.2457 15.8098 42.6447C15.9203 42.6209 16.0247 42.6622 16.1279 42.7035C16.1341 42.6539 16.1476 42.5527 16.1548 42.5032C16.0887 42.497 15.9565 42.4846 15.8894 42.4794L15.94 42.3266C15.7458 42.2615 15.5568 42.183 15.373 42.0952C15.5392 42.1882 15.8005 42.3204 15.7128 42.5527C14.9568 41.8732 13.7773 41.6707 12.8798 42.1892ZM12.8096 48.2609C12.8044 48.6038 13.1246 48.1184 12.8096 48.2609V48.2609Z" fill="#B5B8B2"/>
<path d="M49.1945 42.2429C50.8015 40.86 53.558 41.0449 54.9048 42.7087C55.0845 42.9421 55.2249 43.2013 55.386 43.4482C55.3179 43.4616 55.2497 43.4657 55.1826 43.4616L55.1371 43.4709C55.134 43.6372 55.2384 43.7776 55.2972 43.9284C55.2859 43.8479 55.2621 43.6847 55.2508 43.6031C55.3065 43.6113 55.4191 43.6279 55.4749 43.6361C55.4935 44.0523 55.6587 44.4479 55.6484 44.8662C55.6618 45.2896 55.5947 45.7141 55.4542 46.1138C55.4212 45.9083 55.3964 45.7017 55.3788 45.4951C55.3654 45.6769 55.3613 45.868 55.2621 46.0291C55.1423 46.2098 55.4098 46.3988 55.3117 46.5889C55.0163 47.3128 54.4349 47.8881 53.7439 48.2403C52.8805 48.7195 51.8457 48.7794 50.8893 48.6203C49.9753 48.4675 49.1728 47.9201 48.612 47.1941C48.6296 47.161 48.6637 47.0949 48.6812 47.0619C48.6337 47.0422 48.5377 47.004 48.4902 46.9844C48.2237 46.4897 48.0564 45.9496 48.0058 45.3908C47.9335 44.9705 48.1039 44.5584 48.0523 44.1391C48.106 44.136 48.2123 44.1298 48.266 44.1267C48.2557 44.2372 48.2361 44.4582 48.2258 44.5677C48.295 44.3167 48.3549 44.0627 48.392 43.8055C48.3735 43.8799 48.3363 44.0296 48.3177 44.104C48.2568 44.0348 48.1979 43.9646 48.1411 43.8943C48.4086 43.2994 48.7081 42.6922 49.1945 42.2429ZM49.9546 42.688C49.274 43.5411 49.1697 44.736 49.3918 45.7709C49.3443 45.7823 49.2482 45.8039 49.2007 45.8143C49.2265 45.9558 49.2658 46.1138 49.2028 46.2542C49.3556 46.3709 49.4372 46.5517 49.526 46.718C49.4393 46.4918 49.3546 46.2656 49.273 46.0394C49.3288 45.9692 49.3866 45.899 49.4465 45.8318C49.5632 46.815 50.2593 47.7497 51.2374 48.0151C51.9221 48.3105 52.7266 48.1225 53.305 47.6846C53.8658 47.3056 54.1457 46.6405 54.2861 46.0022C54.5361 44.9922 54.3357 43.8799 53.7501 43.0216C53.2657 42.2873 52.3786 41.8443 51.5028 41.8835C50.9224 41.9754 50.3223 42.2068 49.9546 42.688ZM48.2278 45.9547C48.3652 45.9227 48.3848 45.8484 48.2867 45.7306C48.1493 45.7606 48.1297 45.8349 48.2278 45.9547Z" fill="#B5B8B2"/>
<path d="M58.9399 41.4301C59.7537 41.1988 60.6006 41.3909 61.3958 41.6077C61.7243 42.1179 61.6199 42.783 61.623 43.3645C61.1624 43.2447 61.1438 42.6622 60.8102 42.3782C60.2525 41.6904 59.0039 41.7255 58.6021 42.5589C58.3409 43.1042 58.8325 43.6206 59.2476 43.9129C59.5234 44.1453 59.9613 44.2011 60.1162 44.5532C59.8921 44.4685 59.6773 44.3704 59.4656 44.263C59.6938 44.4128 59.9251 44.5667 60.1947 44.6307C60.3651 44.7681 60.5479 44.891 60.74 44.9984C60.7947 44.9364 60.8516 44.8765 60.9115 44.8197C61.1789 45.1089 61.5332 45.3289 61.7129 45.6924C61.9081 46.0373 61.9453 46.437 62 46.8223C61.937 46.8243 61.81 46.8285 61.7459 46.8305C61.7439 46.7241 61.7397 46.5114 61.7366 46.405C61.7077 46.6694 61.6726 46.9328 61.6551 47.1992C61.6695 47.1806 61.6995 47.1435 61.7139 47.1249C61.8069 46.9586 61.9577 47.2374 61.8131 47.3056C61.5012 48.0926 60.7121 48.6441 59.8704 48.6895C59.1061 48.7298 58.3223 48.6327 57.6055 48.3673C57.3484 48.1143 57.401 47.6846 57.3824 47.3479C57.4196 47.034 57.2461 46.5765 57.6489 46.4505C57.6055 46.814 57.5322 47.1755 57.527 47.5442C57.5745 47.255 57.6065 46.9658 57.6572 46.6787C57.9226 46.939 58.0114 47.3314 58.3099 47.571C58.3181 47.6392 58.3357 47.7766 58.344 47.8457C58.2272 47.7528 58.1126 47.6598 57.998 47.569C58.0982 47.6919 58.2004 47.8158 58.3026 47.9397C58.3791 47.8623 58.4555 47.7848 58.535 47.7105C58.6455 48.0141 58.9863 48.0575 59.2569 48.1318C59.8725 48.2847 60.6057 47.9976 60.8567 47.3944C60.9775 46.941 60.9228 46.3317 60.4436 46.1065C60.4973 46.0518 60.5541 45.9981 60.6119 45.9465C60.7379 46.0941 60.8681 46.2429 61.0034 46.3844C60.8474 46.1509 60.6491 45.9496 60.4137 45.7967C60.4075 45.8649 60.3961 46.0022 60.3899 46.0704C60.0057 45.6738 59.4914 45.4507 59.0142 45.1905C58.9884 45.144 58.9368 45.051 58.911 45.0046C58.8789 45.017 58.8159 45.0428 58.7839 45.0552C58.6042 44.9478 58.4266 44.8342 58.2551 44.7175C58.4493 44.6648 58.6259 44.797 58.8097 44.8445C58.7302 44.7619 58.6507 44.6792 58.5753 44.5976C58.5195 44.578 58.409 44.5408 58.3532 44.5212L58.3708 44.4086C58.252 44.3374 58.1384 44.2599 58.0279 44.1804C58.0909 44.3188 58.2128 44.4541 58.1632 44.6173C57.6871 44.2083 57.3804 43.5669 57.525 42.9359C57.6406 42.2109 58.2272 41.5953 58.9399 41.4301Z" fill="#B5B8B2"/>
<path d="M0.037178 41.5757C0.697126 41.5623 1.36534 41.4993 2.02012 41.6067C1.89412 41.6501 1.76812 41.6924 1.64109 41.7337C1.90651 41.9062 2.05627 42.2068 2.17297 42.4918C2.15335 42.5311 2.11307 42.6106 2.09345 42.6498C2.12546 42.6664 2.19053 42.6984 2.22255 42.7149C2.29484 42.8099 2.34028 42.9163 2.36094 43.0361C2.58299 43.41 2.77199 43.7962 2.91451 44.2093C3.19439 44.6018 3.35757 45.0593 3.58065 45.4827C3.43916 45.0242 3.14895 44.6297 3.01366 44.1691C2.95685 44.0658 2.993 43.9532 3.04154 43.8582C3.27082 44.3818 3.53005 44.8899 3.77172 45.4084C3.81923 45.5261 3.90288 45.6428 3.875 45.7792C3.82749 45.7719 3.73247 45.7585 3.68497 45.7523C3.85744 45.9805 3.96691 46.247 4.0578 46.5166C4.0609 46.4339 4.06813 46.2666 4.07226 46.183C4.21891 46.3906 4.35008 46.6105 4.46472 46.8378C5.25789 45.081 6.08412 43.3377 6.82772 41.5602C7.41744 41.5499 8.00819 41.5417 8.59894 41.5664C8.38722 41.9124 7.84398 41.9992 7.82746 42.4743C7.94003 43.9924 8.08359 45.5158 8.15898 47.0392C8.1879 47.3345 8.23644 47.6247 8.26536 47.9211C8.23954 47.8974 8.18583 47.8509 8.16001 47.8272C8.13729 47.7611 8.09288 47.6289 8.07119 47.5628C8.02988 47.7487 8.01233 47.9521 8.13523 48.1163C8.20442 48.0471 8.27362 47.979 8.34488 47.9129C8.48121 48.2207 8.84888 48.2496 9.11327 48.3952C9.01103 48.4892 8.90981 48.611 8.7518 48.5842C7.95965 48.5759 7.16441 48.61 6.3733 48.5635C6.31237 48.17 6.96612 48.168 6.97541 47.7642C7.07352 46.2336 6.77092 44.7185 6.75749 43.191C6.60154 43.8024 6.27725 44.3498 6.03145 44.9261C5.45516 46.1334 4.94806 47.3727 4.40275 48.5945C4.32426 48.5935 4.16624 48.5925 4.08775 48.5914C3.89565 48.2537 3.75416 47.8891 3.54244 47.5628C3.59511 47.4987 3.64985 47.4378 3.70459 47.3779L3.79341 47.5266C3.53418 46.9441 3.26359 46.3678 2.98784 45.7946C3.11384 46.1954 3.32039 46.5641 3.46085 46.9596C3.40508 46.9421 3.29251 46.9049 3.23571 46.8863C2.82363 45.9041 2.33099 44.9591 1.87243 43.9986C1.65245 43.9573 1.87553 43.6258 1.93027 43.822C2.07486 44.0554 2.21015 44.295 2.33615 44.5398C2.21635 44.2248 2.09861 43.9098 1.98604 43.5928C1.7991 43.5019 1.74333 43.2963 1.65348 43.128C1.69892 43.2323 1.74437 43.3377 1.78981 43.444C1.75263 43.4843 1.6762 43.5638 1.63902 43.6041C1.59565 44.3343 1.49857 45.0614 1.52542 45.7946C1.5595 46.4505 1.30647 47.1125 1.48824 47.7611C1.52542 47.9707 1.73197 48.0657 1.88999 48.1731C1.77535 48.2754 1.64729 48.3663 1.52438 48.2145L1.58119 48.3487C1.2476 48.3611 0.91401 48.3642 0.580421 48.3528C0.648585 48.2268 0.716749 48.1029 0.785945 47.98C0.671307 48.107 0.555634 48.232 0.437897 48.3559C0.366635 48.2909 0.296406 48.2248 0.22721 48.1597C0.688863 48.169 0.552536 47.5783 0.878895 47.4192C0.868567 47.5597 0.85824 47.7022 0.846879 47.8458C0.919174 47.443 1.08029 47.034 0.980107 46.6219C0.921239 46.9028 1.05137 47.2912 0.780781 47.4791C0.733273 46.5765 0.917108 45.6852 0.890256 44.7846C1.21662 45.1409 0.980108 45.6697 1.04208 46.1055C1.05653 45.681 1.15775 45.2524 1.0648 44.8321L1.20422 44.8362C1.14949 44.0513 1.19493 43.2654 1.15878 42.4804C1.10921 43.1445 1.16807 43.8117 1.12883 44.4768C1.1247 44.6224 1.06893 44.7588 0.966682 44.8651C0.924338 44.1164 1.08029 43.3614 0.95842 42.6178C0.840683 42.12 0.323259 41.9455 0.037178 41.5757Z" fill="#B5B8B2"/>
<path d="M19.5847 41.5644C20.5844 41.5365 21.5852 41.5592 22.5859 41.5468C23.3078 41.553 24.1237 41.7492 24.5689 42.3658C25.1121 43.0826 25.0006 44.2248 24.2972 44.797C24.0576 45.0479 23.723 45.1616 23.3936 45.2359C23.816 45.837 24.2177 46.4515 24.5802 47.0918C24.825 47.4956 25.0884 47.9769 25.58 48.1112C25.582 48.1752 25.5882 48.3053 25.5903 48.3694C25.4178 48.2764 25.2536 48.1793 25.0884 48.0761C25.1875 48.1959 25.4147 48.2733 25.3662 48.4675C24.9613 48.6875 24.4511 48.4675 24.1196 48.1917C23.4648 47.6268 23.2139 46.7531 22.6438 46.1169C22.6995 46.0539 22.7553 45.9929 22.8142 45.933L22.902 46.0869C22.8575 45.9919 22.8142 45.8979 22.7708 45.806L22.7677 45.9248C22.7068 45.9124 22.5849 45.8886 22.5229 45.8773C22.3246 45.5282 21.9332 45.4466 21.5614 45.4889C21.5697 46.2398 21.5201 46.9947 21.5872 47.7435C21.6502 48.1256 22.0427 48.2124 22.3453 48.3363C22.495 48.4417 22.2916 48.5863 22.1769 48.5811C21.298 48.5863 20.4181 48.5966 19.5402 48.5708C19.6291 48.1855 20.1424 48.1742 20.2704 47.8055C20.3623 47.4202 20.2838 47.0133 20.3334 46.6209C20.3923 46.7593 20.4532 46.8987 20.5214 47.036C20.4728 46.8243 20.3851 46.6271 20.3252 46.4205C20.2756 45.1078 20.4006 43.7931 20.3055 42.4825C20.3231 42.1314 19.9823 41.9424 19.7323 41.774C19.8614 41.743 19.9916 41.7121 20.1207 41.68C19.9213 41.71 19.7241 41.7451 19.5268 41.7782C19.5413 41.7245 19.5702 41.6181 19.5847 41.5644ZM21.5573 42.0828C21.5521 43.0423 21.5593 44.0017 21.5542 44.9612C22.0613 44.9695 22.6117 45.0087 23.062 44.7288C23.8108 44.3064 23.881 43.223 23.472 42.5393C23.0001 41.9806 22.211 42.0684 21.5573 42.0828Z" fill="#B5B8B2"/>
<path d="M27.504 41.5613C28.5502 41.5396 29.5975 41.5551 30.6447 41.5509C31.4813 41.5571 32.3746 41.9971 32.6979 42.8068C33.0996 43.7859 32.5853 45.1925 31.4823 45.4104C31.5784 45.3258 31.6909 45.2669 31.8035 45.2091C31.8396 45.1574 31.9099 45.0541 31.945 45.0015L31.9481 44.9922C31.7405 45.0954 31.5257 45.1843 31.3202 45.2917C31.3904 45.3598 31.4606 45.4311 31.5298 45.5034C30.8657 45.6511 30.1882 45.7575 29.5076 45.6676C29.5283 46.3286 29.4787 46.9927 29.5293 47.6526C29.5933 48.0544 30.0075 48.2382 30.339 48.3787C30.1469 48.3756 29.9559 48.3694 29.7648 48.3621C29.237 48.3322 28.6711 48.4603 28.1743 48.2516L28.0948 48.3394C28.0307 48.2805 27.9688 48.2206 27.9068 48.1628C28.1041 48.0637 28.3024 47.9015 28.2693 47.6557C28.3148 46.1778 28.2497 44.6978 28.29 43.2189C28.29 42.8987 28.3643 42.5878 28.4656 42.2863C28.4108 42.3823 28.3571 42.4784 28.3034 42.5755C28.2507 42.4267 28.2228 42.2739 28.1516 42.1355C27.9647 41.9093 27.5505 41.8928 27.504 41.5613ZM29.5118 42.0756C29.5076 43.1063 29.5076 44.137 29.5149 45.1677C30.086 45.1967 30.7222 45.1605 31.1714 44.7588C31.7705 44.1907 31.7374 43.2024 31.3305 42.5362C30.875 42.0229 30.1366 42.0591 29.5118 42.0756Z" fill="#B5B8B2"/>
<path d="M34.1655 41.5716C35.0537 41.5158 35.946 41.5726 36.8363 41.5561C36.8455 41.6026 36.8631 41.6955 36.8714 41.742C36.5997 41.617 36.3002 41.7214 36.0152 41.7079C35.3491 41.6966 34.6808 41.6831 34.0178 41.7565C34.055 41.71 34.1293 41.6181 34.1655 41.5716Z" fill="#B5B8B2"/>
<path d="M39.0991 41.5623C40.0327 41.5323 40.9674 41.5633 41.901 41.553C41.9021 41.6088 41.9041 41.7213 41.9052 41.7782C41.5406 41.6263 41.1502 41.7441 40.7712 41.6966C41.0066 41.7389 41.2514 41.7916 41.4342 41.961C41.0531 42.2119 41.0686 42.7046 41.0738 43.1063C41.0955 43.6919 41.0221 44.2857 41.1368 44.8651C41.0707 44.8703 40.9385 44.8796 40.8724 44.8837C40.861 44.5791 40.8693 44.2754 40.8899 43.9728C40.8755 43.9707 40.8445 43.9676 40.83 43.9656C40.9157 44.4696 40.734 44.9653 40.797 45.4703L40.7298 45.5705C40.7515 45.586 40.7939 45.618 40.8156 45.6335C40.8269 45.6067 40.8507 45.554 40.8631 45.5282C40.8497 45.3495 40.8455 45.1688 40.8899 44.9953C40.9602 45.0273 41.0294 45.0645 41.0965 45.1068C41.0603 45.9217 41.0758 46.7376 41.08 47.5535C41.0521 47.821 41.2638 48.0089 41.4425 48.1711C41.2855 48.3208 41.0789 48.3911 40.8724 48.4396C41.1523 48.4179 41.4342 48.4293 41.7151 48.4427C41.6552 48.4396 41.5365 48.4334 41.4766 48.4303C41.4817 48.3714 41.491 48.2537 41.4962 48.1948C41.68 48.2361 41.8452 48.3301 41.9743 48.4695C41.6325 48.6544 41.238 48.5749 40.8682 48.5863C40.3188 48.5697 39.7683 48.609 39.221 48.5728C38.9989 48.5057 39.1838 48.2929 39.2685 48.2C39.3428 48.264 39.4161 48.3312 39.4905 48.4004L39.3294 48.4427C39.7053 48.4148 40.0833 48.4303 40.4613 48.4375C40.1412 48.4096 39.822 48.3838 39.505 48.3404C39.5153 48.2867 39.5349 48.1773 39.5452 48.1236C39.8778 47.9583 39.8571 47.5617 39.8602 47.2467C39.852 46.5424 39.8881 45.837 39.8788 45.1337C39.7735 45.0159 39.568 45.0965 39.4265 45.0696C38.2987 45.0841 37.1719 45.0531 36.0451 45.0882C36.1278 46.0064 35.9305 46.9514 36.1722 47.8519C36.1133 47.8592 35.9956 47.8747 35.9367 47.8819L35.9336 47.7941C35.916 47.8148 35.883 47.8571 35.8654 47.8788C35.9264 47.9521 35.9925 48.0224 36.0575 48.0957C36.1205 48.0255 36.1856 47.9573 36.2517 47.8902C36.2899 48.0502 36.3271 48.2114 36.3622 48.3735C36.2569 48.3725 36.1526 48.3714 36.0493 48.3735C35.8066 48.3714 35.5319 48.4138 35.3377 48.2403C35.3728 48.4675 35.1735 48.3704 35.0382 48.3539L35.0754 48.3818C34.8389 48.3673 34.6023 48.358 34.371 48.4117L34.5796 48.3983C34.5765 48.4644 34.5703 48.5956 34.5672 48.6616C34.3607 48.6121 34.1386 48.5842 34.0002 48.4076C34.2512 48.2847 34.5352 48.201 34.7263 47.9852C34.782 47.9748 34.8936 47.9532 34.9494 47.9418C34.9401 47.9965 34.9204 48.105 34.9112 48.1597C35.2489 47.8106 35.0062 47.3469 35.0547 46.9297C35.0981 46.5785 35.0764 46.2243 35.0217 45.8762C35.0041 46.5021 35.0382 47.1269 35.0299 47.7518C34.9979 47.7724 34.9328 47.8137 34.9008 47.8334C34.8203 46.0518 34.9173 44.2599 34.8574 42.4763C34.8688 42.1148 34.5146 41.9496 34.2677 41.7668C34.8172 41.7947 35.3645 41.6893 35.915 41.7399C36.1763 41.7751 36.4696 41.6924 36.703 41.8515C36.4707 41.9134 36.1536 41.9878 36.1236 42.279C35.9842 43.0196 36.0751 43.7828 36.0441 44.5336C37.3144 44.5656 38.5858 44.5429 39.8561 44.5429C39.8499 43.82 39.9139 43.0939 39.822 42.3741C39.7962 42.0901 39.507 41.9331 39.2623 41.8659C39.3222 41.8184 39.3841 41.773 39.4471 41.7286C39.6103 41.7947 39.7797 41.7647 39.9449 41.7286C39.7126 41.7038 39.4812 41.6749 39.253 41.6305C39.2313 41.6821 39.1869 41.7843 39.1641 41.836C39.1487 41.7678 39.1156 41.6305 39.0991 41.5623ZM35.0051 42.6374C34.9142 42.7603 34.938 42.8347 35.0764 42.8584C35.1673 42.7324 35.1435 42.6591 35.0051 42.6374ZM34.9989 43.0371C34.8585 43.3531 35.3408 43.033 34.9989 43.0371V43.0371Z" fill="#B5B8B2"/>
<path d="M43.5029 41.5664C44.4665 41.5355 45.4311 41.5416 46.3947 41.5602C46.3234 41.6852 46.2542 41.8122 46.186 41.9393C46.1086 41.8752 46.0332 41.8102 45.9599 41.7451L46.1406 41.6759C45.6232 41.7668 45.1006 41.6862 44.5811 41.7028C44.8775 41.7203 45.176 41.7358 45.4734 41.7637C45.6387 41.7699 45.8029 41.774 45.9712 41.7823C45.9506 41.8432 45.9093 41.9651 45.8886 42.026C45.5633 42.2336 45.5426 42.6581 45.5282 43.0051C45.5168 44.4169 45.5313 45.8287 45.5178 47.2405C45.491 47.5586 45.5695 47.8705 45.7678 48.1236C45.9888 48.2031 46.2015 48.3084 46.3926 48.4479C46.0476 48.6926 45.6056 48.5532 45.2132 48.5842C44.64 48.5398 44.0296 48.703 43.4884 48.4582C43.821 48.2134 44.1742 47.9996 44.4809 47.7197C44.3807 47.9335 44.2589 48.138 44.1184 48.3281C43.9945 48.3642 43.8716 48.4024 43.7487 48.4417C44.546 48.3911 45.3485 48.3621 46.1437 48.4499C45.8452 48.4158 45.5891 48.2868 45.4672 48.0027C45.4383 48.0182 45.3805 48.0482 45.3515 48.0637C45.4486 48.1453 45.5416 48.2351 45.6314 48.3312C45.1367 48.3642 44.641 48.3394 44.1473 48.3601C44.325 48.0781 44.5925 47.8034 44.5563 47.4419C44.547 46.5413 44.579 45.6397 44.5377 44.7391C44.4644 45.7172 44.5666 46.7014 44.4923 47.6784L44.3694 47.792C44.3725 46.1613 44.3642 44.5305 44.3745 42.8998C44.3776 42.6209 44.358 42.3173 44.1473 42.1107C43.9738 41.8763 43.6061 41.8587 43.5029 41.5664Z" fill="#B5B8B2"/>
<path d="M1.96022 41.7864C2.11927 41.8567 2.21325 42.0663 2.24217 42.2336C2.21119 42.2388 2.14716 42.2481 2.11514 42.2532C2.03045 42.1272 1.88896 41.9289 1.96022 41.7864Z" fill="#B5B8B2"/>
<path d="M41.5106 41.7761C41.5447 41.7771 41.6129 41.7802 41.6469 41.7823L41.6573 41.8618L41.5571 41.9062C41.5457 41.8742 41.522 41.8081 41.5106 41.7761Z" fill="#B5B8B2"/>
<path d="M2.59641 43.0857C2.41051 42.9049 2.12237 42.5579 2.34648 42.3131C2.43943 42.5672 2.52722 42.8223 2.59641 43.0857Z" fill="#B5B8B2"/>
<path d="M2.57679 43.1611C2.60568 43.1866 2.60568 43.1866 2.57679 43.1611V43.1611Z" fill="#B5B8B2"/>
<path d="M2.68007 43.3438C2.73687 43.3986 2.73687 43.3986 2.68007 43.3438V43.3438Z" fill="#B5B8B2"/>
<path d="M1.76295 43.6051C1.79369 43.6221 1.79369 43.6221 1.76295 43.6051V43.6051Z" fill="#B5B8B2"/>
<path d="M2.78232 43.5452C2.84015 43.5979 2.84015 43.5979 2.78232 43.5452V43.5452Z" fill="#B5B8B2"/>
<path d="M2.90005 43.7673C2.92783 43.794 2.92783 43.794 2.90005 43.7673V43.7673Z" fill="#B5B8B2"/>
<path d="M11.624 44.0307C11.5393 43.8127 11.8801 43.8303 11.7809 44.0461C11.751 44.0596 11.6901 44.0854 11.6601 44.0988L11.624 44.0307Z" fill="#B5B8B2"/>
<path d="M60.1048 44.4747C60.1596 44.5295 60.1596 44.5295 60.1048 44.4747V44.4747Z" fill="#B5B8B2"/>
<path d="M60.2918 44.5811C60.4302 44.5532 60.5686 44.6503 60.6729 44.736C60.6687 44.7681 60.6615 44.8331 60.6574 44.8662C60.5169 44.8404 60.2825 44.7412 60.2918 44.5811Z" fill="#B5B8B2"/>
<path d="M17.641 46.3296C17.7391 46.0466 17.7793 45.7306 17.9632 45.4869C17.9498 45.7564 17.925 46.0291 17.8991 46.2997C17.8351 46.3069 17.706 46.3224 17.641 46.3296Z" fill="#B5B8B2"/>
<path d="M3.91114 45.9196C3.94316 45.9341 4.00719 45.9609 4.03921 45.9743L3.9979 46.059L3.90392 46.0601L3.8595 45.9764L3.91114 45.9196Z" fill="#B5B8B2"/>
<path d="M55.3272 46.1231C55.1774 46.4391 55.668 46.1272 55.3272 46.1231V46.1231Z" fill="#B5B8B2"/>
<path d="M3.42884 47.0598C3.45551 47.0887 3.45551 47.0887 3.42884 47.0598V47.0598Z" fill="#B5B8B2"/>
<path d="M3.51765 47.3221C3.54945 47.3391 3.54945 47.3391 3.51765 47.3221V47.3221Z" fill="#B5B8B2"/>
<path d="M0.0330429 48.2826C0.202419 48.0791 0.21378 48.5687 0.0351089 48.3807L0.0330429 48.2826Z" fill="#B5B8B2"/>
<path d="M2.00256 48.4066C2.00256 48.3642 2.00256 48.2816 2.00256 48.2403C2.04697 48.2527 2.13476 48.2775 2.17917 48.2909L2.17814 48.3611C2.13476 48.3725 2.04697 48.3952 2.00256 48.4066Z" fill="#B5B8B2"/>
<path d="M25.614 48.4004C25.6884 48.3301 25.7638 48.262 25.8413 48.1969C25.8826 48.2682 25.9662 48.4107 26.0075 48.4819C25.896 48.5181 25.6719 48.6792 25.5934 48.5553L25.5882 48.4923C25.6388 48.4809 25.74 48.4603 25.7917 48.4499L25.614 48.4004Z" fill="#B5B8B2"/>
<path d="M27.5681 48.5594C27.408 48.3219 27.7653 48.296 27.8913 48.1948C27.8572 48.2909 27.8232 48.3869 27.788 48.483C28.3158 48.3456 28.8642 48.4355 29.4023 48.4086C29.7059 48.4231 30.0633 48.3528 30.3049 48.5873C29.393 48.5646 28.4769 48.6224 27.5681 48.5594Z" fill="#B5B8B2"/>
<path d="M36.3488 48.3869C36.5264 48.1411 36.9302 48.233 36.8569 48.5697C36.1619 48.6028 35.4647 48.5718 34.7697 48.5997C34.6178 48.5573 34.7531 48.4427 34.8523 48.4582C35.474 48.3487 36.1092 48.4303 36.7371 48.4437C36.64 48.4293 36.4459 48.4014 36.3488 48.3869Z" fill="#B5B8B2"/>
<path d="M0 48.5057C0.14459 48.4375 0.337719 48.4148 0.483341 48.4923C0.433768 48.6327 0.0526719 48.6348 0 48.5057Z" fill="#B5B8B2"/>
<path d="M0.635162 48.4809C0.823129 48.3405 0.82726 48.7546 0.643425 48.578L0.635162 48.4809Z" fill="#B5B8B2"/>
<path d="M0.901619 48.6307C0.898521 48.5718 0.892324 48.4551 0.890259 48.3962C1.38909 48.3993 1.88896 48.4334 2.38883 48.4035C2.28658 48.6379 2.02839 48.5718 1.83319 48.5863C1.52232 48.5801 1.20939 48.5821 0.901619 48.6307Z" fill="#B5B8B2"/>
</svg>
