<svg width="37" height="3" viewBox="0 0 37 3" fill="none" xmlns="http://www.w3.org/2000/svg">
<path d="M14.3714 0.0837048C14.5852 0.0827878 14.7856 0.10471 15.0387 0.132463C15.0388 0.132463 15.039 0.132463 15.0391 0.132463C15.0753 0.136428 15.1125 0.140581 15.151 0.144732C15.4611 0.178157 15.8641 0.217384 16.4716 0.239889C17.1429 0.264761 17.6759 0.354806 18.0013 0.441215C18.062 0.457331 18.1249 0.466186 18.2833 0.474245C18.3873 0.47953 18.5278 0.484301 18.7305 0.491232C18.8384 0.494918 18.9639 0.49916 19.1109 0.504444C19.5973 0.521933 20.3596 0.516487 21.062 0.511364C21.4884 0.508255 21.8927 0.505283 22.1999 0.507747C22.6491 0.51135 23.0825 0.527514 23.5536 0.545181C23.9851 0.56136 24.4483 0.578822 24.9842 0.588749C25.3954 0.596369 25.795 0.661788 26.201 0.734867C26.2526 0.744167 26.3045 0.753569 26.3565 0.763021C26.7147 0.828226 27.081 0.894981 27.477 0.933204C28.183 1.00133 28.7463 0.973182 29.3701 0.942012C29.614 0.929821 29.8673 0.917147 30.1419 0.909611C30.5762 0.897693 31.2006 0.9001 31.8275 0.903477C31.881 0.903765 31.9344 0.903969 31.9878 0.904263C31.988 0.904263 31.9883 0.904263 31.9886 0.904263C32.5625 0.907435 33.1257 0.910548 33.539 0.903634C34.1956 0.892647 34.4427 0.866686 34.6487 0.844967C34.7262 0.836803 34.7979 0.829178 34.8834 0.823261C35.1913 0.801954 35.6561 0.80591 36.1272 0.809892C36.129 0.809892 36.1308 0.809892 36.1326 0.809892C36.2108 0.810553 36.274 0.883314 36.2735 0.972368C36.2732 1.06143 36.2095 1.13315 36.1313 1.13248C35.8817 1.13038 35.6382 1.12834 35.4201 1.12981C35.4088 1.20633 35.3501 1.26426 35.2798 1.26366C35.1036 1.26219 34.564 1.31984 33.7195 1.41403C33.7774 1.42797 33.8258 1.44155 33.8683 1.45445C33.9181 1.46959 33.9563 1.48261 33.9891 1.49377C34.0575 1.51702 34.1031 1.53236 34.1839 1.54363C34.371 1.55644 34.6651 1.5591 34.9747 1.56172C35.0529 1.5624 35.116 1.63502 35.1156 1.72404C35.1152 1.81308 35.0515 1.88478 34.9733 1.88415C34.9718 1.88415 34.9703 1.88415 34.9688 1.88415C34.6622 1.88156 34.3586 1.87893 34.1631 1.86528C34.1133 1.8618 34.0705 1.85769 34.0383 1.85395C34.0126 1.85097 33.9805 1.84691 33.9627 1.84169C33.9603 1.84099 33.9558 1.83959 33.9504 1.83744C33.9503 1.83739 33.9502 1.83733 33.9501 1.83728C33.9471 1.83609 33.9318 1.83008 33.9154 1.81699C33.912 1.81435 33.9048 1.80844 33.8965 1.7989C33.8943 1.79817 33.8922 1.79744 33.89 1.7967C33.8599 1.78651 33.8292 1.77613 33.796 1.76603C33.6663 1.72661 33.4608 1.67693 33.0329 1.62432C32.6394 1.57593 31.9742 1.55423 31.1441 1.55385C31.2002 1.56052 31.2563 1.56699 31.3125 1.5732C31.4538 1.58881 31.5958 1.60304 31.7379 1.61661C31.7923 1.62179 31.846 1.62687 31.9006 1.63187C31.9887 1.63994 32.077 1.64787 32.1652 1.65562C32.2249 1.66086 32.2846 1.66601 32.3443 1.67119C32.3445 1.67119 32.3446 1.67119 32.3447 1.67119C32.4276 1.67838 32.5107 1.68561 32.5944 1.69305C32.6237 1.69582 32.6526 1.69848 32.6814 1.70107C32.7958 1.7114 32.9082 1.72143 33.0375 1.74087C33.0533 1.74408 33.0704 1.74825 33.0831 1.75172C33.0968 1.75537 33.11 1.7591 33.1225 1.76289C33.1335 1.76623 33.144 1.76963 33.1541 1.77279C33.1554 1.77321 33.1568 1.77363 33.1581 1.77405C33.1694 1.77759 33.1801 1.78087 33.1905 1.78396C33.2008 1.78705 33.2107 1.79003 33.2205 1.79261C33.2206 1.79261 33.2207 1.79261 33.2208 1.79261C33.2311 1.79526 33.2388 1.79725 33.2497 1.79953C33.2633 1.80239 33.275 1.80459 33.2892 1.80677C33.3029 1.80889 33.3172 1.81078 33.3317 1.81243C33.3461 1.81408 33.3608 1.81552 33.3758 1.81683C33.3907 1.81815 33.4059 1.81937 33.4212 1.82045C33.4365 1.82154 33.452 1.82248 33.4676 1.82344C33.4832 1.8244 33.499 1.82536 33.5148 1.82627C33.5513 1.8284 33.5862 1.84627 33.6119 1.8766C33.6376 1.90694 33.6519 1.94706 33.6517 1.98859C33.6515 2.03012 33.6369 2.07004 33.611 2.09995C33.585 2.12985 33.5499 2.14719 33.5135 2.14871C33.5035 2.14911 33.4936 2.14957 33.4835 2.14996C33.4776 2.1502 33.4716 2.15037 33.4656 2.15059C33.4495 2.1512 33.4332 2.15187 33.4169 2.15232C33.4006 2.15278 33.3841 2.15308 33.3674 2.15327C33.3507 2.15346 33.3337 2.15352 33.3166 2.15327C33.2994 2.15302 33.2819 2.15248 33.2641 2.15154C33.2467 2.15065 33.2269 2.14908 33.2092 2.14713C33.1963 2.14576 33.1803 2.14342 33.167 2.14131C33.1531 2.13911 33.1394 2.13664 33.1263 2.13408C33.1131 2.13151 33.1003 2.12878 33.0881 2.12621C33.0868 2.12595 33.0855 2.12569 33.0842 2.12543C33.0734 2.12316 33.063 2.12094 33.0532 2.11898C33.0422 2.11678 33.0318 2.11491 33.0219 2.11332C33.011 2.11152 33.0044 2.11081 32.9963 2.11001C32.889 2.10483 32.7563 2.1059 32.6298 2.10687C32.614 2.10699 32.5981 2.10708 32.5825 2.10718C32.4994 2.10794 32.4165 2.1089 32.3337 2.10986C32.2735 2.11056 32.2132 2.11128 32.1528 2.1119C32.064 2.11283 31.9749 2.11356 31.8859 2.1141C31.8307 2.11442 31.7764 2.11463 31.7213 2.11473C31.5773 2.11504 31.4329 2.11461 31.2882 2.11269C31.1438 2.11076 30.9985 2.1074 30.853 2.10168C30.7082 2.09597 30.5576 2.08744 30.4123 2.07447C30.3055 2.06477 30.1959 2.04787 30.0946 2.03043C30.0401 2.02103 29.9868 2.0115 29.9342 2.00196C29.934 2.00191 29.9339 2.00185 29.9337 2.0018C29.8876 1.99343 29.842 1.98514 29.7968 1.97727C29.6999 1.96031 29.6046 1.94519 29.5094 1.93244C29.4143 1.91969 29.3197 1.90929 29.2243 1.9013C29.1297 1.89339 29.0334 1.88767 28.9381 1.88415C28.8424 1.88061 28.7483 1.87917 28.6495 1.87928C28.5196 1.87959 28.3906 1.88247 28.2582 1.88588C28.1267 1.88937 27.9941 1.89373 27.8613 1.89815C27.8148 1.8997 27.7683 1.90114 27.7217 1.90271C27.7215 1.90271 27.7213 1.90271 27.7211 1.90271C27.6349 1.90562 27.5485 1.90855 27.4621 1.91136C27.3286 1.91569 27.1947 1.91982 27.0603 1.92316C26.926 1.92649 26.7908 1.9291 26.6549 1.93008C26.519 1.93098 26.3795 1.93043 26.2393 1.9252C26.1142 1.92069 25.9881 1.91466 25.8649 1.90869C25.8323 1.90712 25.7998 1.90554 25.7673 1.90397C25.6128 1.89661 25.4633 1.89074 25.3155 1.88966C25.1677 1.88844 25.0201 1.89177 24.8711 1.89878C24.7226 1.90576 24.5721 1.91622 24.4205 1.92882C24.2682 1.94149 24.1179 1.95609 23.9645 1.97208C23.8123 1.988 23.6594 2.0051 23.5047 2.02319C23.4186 2.03321 23.3271 2.04242 23.2406 2.05025C23.1533 2.05815 23.0665 2.06514 22.9809 2.07164C22.9461 2.07428 22.9115 2.07679 22.8772 2.07934C22.8271 2.08307 22.7774 2.0867 22.7285 2.09051C22.6461 2.09694 22.5656 2.10382 22.4874 2.1119C22.4093 2.11998 22.3334 2.12937 22.2602 2.14084C22.1843 2.15276 22.1218 2.16488 22.0471 2.18221C21.865 2.21562 21.7522 2.22588 21.6268 2.23742C21.6022 2.23969 21.5769 2.2421 21.5507 2.24465C21.4003 2.25759 21.2502 2.26724 21.102 2.27454C20.9523 2.28184 20.805 2.28677 20.6558 2.28963C20.5081 2.29249 20.3593 2.29317 20.2111 2.29199C20.0631 2.29082 19.9153 2.28774 19.7672 2.28271C19.6192 2.2777 19.4682 2.27059 19.3231 2.26195C19.2393 2.25698 19.1503 2.25035 19.0676 2.24355C19.0079 2.23865 18.9491 2.23351 18.8914 2.22845C18.8679 2.22638 18.8445 2.22433 18.8213 2.22232C18.7414 2.21539 18.6637 2.20896 18.5887 2.20407C18.5136 2.19917 18.441 2.19573 18.3699 2.19448C18.2987 2.19321 18.2291 2.19415 18.1594 2.19731C18.0872 2.20069 18.0272 2.20522 17.9505 2.21351C17.9006 2.21898 17.8516 2.2245 17.8028 2.23002C17.7298 2.23829 17.6573 2.24674 17.5842 2.2555C17.5113 2.26426 17.4392 2.27321 17.3668 2.28256C17.3435 2.28556 17.319 2.28874 17.2956 2.29184C17.2235 2.30142 17.1522 2.31128 17.0809 2.32172C17.0098 2.33214 16.9393 2.34303 16.8692 2.35459C16.7987 2.3662 16.7294 2.3783 16.6588 2.3914C16.5387 2.41373 16.4238 2.42409 16.3231 2.43103C16.2213 2.4379 16.1261 2.4417 16.0334 2.44535C16.0161 2.44603 15.9987 2.44671 15.9814 2.44739C15.9067 2.45025 15.8331 2.45294 15.7607 2.4562C15.6715 2.4602 15.5839 2.46498 15.496 2.47067C15.4089 2.4763 15.3209 2.48289 15.2342 2.49065C15.1468 2.49849 15.0631 2.50697 14.973 2.51738C14.8839 2.5276 14.7933 2.54094 14.6941 2.55545C14.5958 2.56985 14.4926 2.58466 14.3881 2.5976C14.2837 2.61059 14.1777 2.62181 14.0724 2.63063C13.9669 2.6395 13.8611 2.64622 13.7567 2.65092C13.6518 2.65566 13.5475 2.65844 13.4437 2.65973C13.3401 2.66102 13.2332 2.6608 13.1331 2.65926C12.971 2.65676 12.8096 2.65324 12.648 2.64935C12.4872 2.64543 12.326 2.64107 12.1651 2.63645C12.0044 2.63183 11.8436 2.62701 11.6831 2.62198C11.5224 2.61695 11.3618 2.61178 11.2015 2.60656C11.166 2.60541 11.1305 2.60426 11.0951 2.6031C10.9702 2.59904 10.8453 2.59496 10.7209 2.59099C10.7201 2.59094 10.7192 2.59089 10.7184 2.59084C10.5583 2.58579 10.4012 2.58087 10.2425 2.57668C10.1842 2.57518 10.1282 2.57377 10.0713 2.57259C10.0144 2.57142 9.95847 2.57046 9.90207 2.56976C9.84559 2.56906 9.78945 2.56867 9.73416 2.56866C9.67827 2.56867 9.6238 2.56904 9.56882 2.57007C9.51843 2.57098 9.46839 2.57262 9.41373 2.57432C9.40874 2.57448 9.40375 2.57464 9.39876 2.57479C9.33894 2.57667 9.27091 2.57785 9.20766 2.577C9.04015 2.57445 8.8769 2.57326 8.71069 2.57338C8.5444 2.57349 8.37848 2.57488 8.21116 2.57684C8.14583 2.57759 8.08019 2.57852 8.01453 2.57935C7.91239 2.58065 7.80987 2.58196 7.70705 2.58297C7.53786 2.58466 7.36832 2.58542 7.19767 2.58439C7.02768 2.58336 6.8566 2.58045 6.68628 2.57542C6.51609 2.57042 6.34443 2.56332 6.17502 2.55435C5.98625 2.5443 5.79859 2.53321 5.61008 2.52163C5.42187 2.51004 5.23356 2.4979 5.04608 2.48546C4.85792 2.47299 4.67024 2.46019 4.48249 2.44708C4.29464 2.43396 4.10691 2.42053 3.91904 2.40681C3.80661 2.3986 3.69421 2.39024 3.58175 2.3818C3.52225 2.38937 3.46521 2.39679 3.41034 2.40382C3.00489 2.4558 2.71173 2.4933 2.32497 2.51911C2.28793 2.52302 2.25779 2.52859 2.22113 2.53531C2.21413 2.5366 2.20671 2.53788 2.19914 2.53925C2.15122 2.5479 2.0962 2.55696 2.01964 2.56268C1.86693 2.57411 1.63285 2.57162 1.33036 2.49631C1.25395 2.47728 1.20533 2.3914 1.2218 2.30442C1.23338 2.24341 1.27396 2.19807 1.32348 2.18299C1.23198 2.17265 1.14073 2.16182 1.04971 2.15107C1.01338 2.14676 0.979277 2.12674 0.95504 2.09492C0.930818 2.06308 0.918424 2.02218 0.920516 1.98073C0.922609 1.93926 0.939097 1.90036 0.966369 1.87204C0.993631 1.84376 1.0294 1.82843 1.0659 1.8291C1.16272 1.83095 1.25921 1.83282 1.35572 1.83414C1.45231 1.83547 1.54844 1.83625 1.64486 1.83665C1.74125 1.83706 1.83761 1.83701 1.93427 1.83665C2.03056 1.83628 2.12704 1.83568 2.22369 1.83476C2.32095 1.83387 2.41638 1.83261 2.51337 1.8313C2.57148 1.8305 2.63029 1.82971 2.68802 1.82879C2.70954 1.82847 2.73053 1.82803 2.75154 1.82769C2.76871 1.8274 2.78597 1.82717 2.80373 1.8269C2.9906 1.82374 3.17927 1.8202 3.36624 1.81636C3.5541 1.81254 3.74177 1.8085 3.92943 1.80425C4.11719 1.8 4.30479 1.79548 4.49247 1.79088C4.68007 1.78628 4.86755 1.78153 5.05539 1.77657C5.24253 1.77159 5.43044 1.7665 5.6179 1.761C5.7629 1.75675 5.90667 1.75218 6.05067 1.74731C6.10737 1.73899 6.16347 1.73113 6.21884 1.72356C6.38003 1.70153 6.54144 1.67262 6.70044 1.64398C6.41744 1.65822 6.1901 1.68046 5.97367 1.7017C5.94465 1.70455 5.91582 1.70741 5.88708 1.71019C5.59373 1.73865 5.31033 1.76273 4.92916 1.75738C3.84506 1.74217 3.21646 1.73107 2.82477 1.71035C2.43315 1.68964 2.26488 1.65893 2.10784 1.59789C1.88594 1.51163 1.45765 1.46256 1.24243 1.46074C1.16425 1.46008 1.10115 1.3873 1.1015 1.29826C1.10188 1.2092 1.16559 1.13749 1.24378 1.13815C1.47103 1.14007 1.93448 1.18994 2.1986 1.2926C2.31624 1.33833 2.45152 1.36783 2.83718 1.38823C3.22287 1.40863 3.84567 1.41955 4.93186 1.43479C5.29931 1.43994 5.57204 1.41701 5.86227 1.38886C5.89073 1.3861 5.91939 1.38321 5.94831 1.38037C5.94849 1.38037 5.94867 1.38037 5.94885 1.38037C6.21545 1.3542 6.50574 1.32567 6.8972 1.31305C7.79946 1.28395 9.01315 1.22754 9.30125 1.19571C9.3578 1.18947 9.41245 1.18245 9.4701 1.17511C9.69139 1.14692 9.95855 1.11291 10.5606 1.09033C10.6923 1.08539 10.8465 1.08252 11.0148 1.08121C11.2674 1.03781 11.5126 0.997541 11.7258 0.973626C11.9098 0.95299 12.0795 0.915027 12.2439 0.873435C12.2913 0.861461 12.3389 0.84894 12.3865 0.836473C12.5012 0.806406 12.616 0.776354 12.7278 0.753112C12.817 0.734585 12.9103 0.712322 13.009 0.688782C13.3685 0.603034 13.7992 0.500284 14.3605 0.498939C14.9555 0.497513 15.4649 0.51606 15.9042 0.534171C15.5816 0.51322 15.3325 0.488117 15.125 0.465751C15.0859 0.461533 15.0484 0.457434 15.0123 0.453483C14.7572 0.425576 14.5718 0.405287 14.3732 0.40614C13.4241 0.410216 13.0681 0.437558 12.6665 0.516555C12.5607 0.537353 12.4441 0.565061 12.3184 0.594883C12.0672 0.654485 11.7799 0.722631 11.4712 0.761605C11.1837 0.797903 10.8621 0.851487 10.5214 0.908196C10.5212 0.908196 10.5211 0.908196 10.5209 0.908196C10.4544 0.919277 10.387 0.930476 10.3191 0.941697C9.90478 1.01012 9.46905 1.07892 9.04488 1.12226C8.99952 1.1269 8.94517 1.13329 8.88278 1.14066C8.52265 1.18322 7.89043 1.25794 7.11838 1.21003C6.9488 1.1995 6.77259 1.1772 6.57151 1.15167C6.51026 1.1439 6.44667 1.13573 6.38028 1.12761C6.09364 1.09256 5.74539 1.05533 5.28169 1.03292C4.899 1.01443 4.43261 1.00557 3.94831 0.996275C3.70975 0.991699 3.46685 0.986944 3.22747 0.981019C2.50437 0.963122 1.84162 0.934733 1.18013 0.906308C1.17999 0.906308 1.17986 0.906308 1.17972 0.906308C1.10157 0.90295 1.04036 0.827958 1.04311 0.738956C1.04588 0.65 1.11145 0.580541 1.18957 0.583873C1.85145 0.612315 2.51217 0.640746 3.23286 0.658583C3.46861 0.664418 3.70961 0.669121 3.94723 0.673683C4.43388 0.683025 4.90676 0.691982 5.29302 0.710645C5.76461 0.733432 6.11924 0.771374 6.40981 0.806904C6.47979 0.815461 6.54559 0.823828 6.60806 0.831755C6.80692 0.856989 6.97223 0.878081 7.13308 0.888063C7.88062 0.934452 8.48894 0.862709 8.85041 0.820116C8.91452 0.812561 8.97087 0.805988 9.01885 0.801084C9.4347 0.758589 9.86376 0.690922 10.2777 0.622565C10.3448 0.611475 10.4116 0.600414 10.4779 0.589378C10.4781 0.589325 10.4782 0.589273 10.4783 0.589221C10.819 0.532519 11.1463 0.47803 11.4392 0.441058C11.7365 0.403529 11.9958 0.341715 12.2383 0.283929C12.3684 0.252922 12.4937 0.223184 12.6175 0.198838C13.0436 0.115031 13.4193 0.0877931 14.3714 0.0837048ZM1.46495 2.19857C1.65303 2.23898 1.80627 2.24751 1.92038 2.24481C1.82347 2.23563 1.72678 2.22599 1.63003 2.21602C1.57495 2.21035 1.51995 2.20454 1.46495 2.19857ZM11.0379 1.40349C11.0074 1.40873 10.9767 1.41404 10.9459 1.41937C11.0309 1.41685 11.116 1.4145 11.2009 1.41214C11.3052 1.40924 11.4095 1.40651 11.5137 1.4038C11.348 1.40274 11.1874 1.40244 11.0379 1.40349ZM14.3618 0.821531C13.8325 0.8228 13.4369 0.916876 13.0802 1.00178C12.9775 1.02623 12.8779 1.04988 12.7793 1.07036C12.7385 1.07885 12.6977 1.08824 12.6565 1.0982C12.8962 1.10325 13.1166 1.10856 13.2969 1.11298C13.8352 1.12617 14.1416 1.15364 14.4108 1.17778C14.4887 1.18477 14.5635 1.19144 14.6399 1.19744C14.7031 1.18662 14.7687 1.17588 14.8351 1.16646C14.9279 1.15314 15.0283 1.14036 15.1238 1.1295C15.2197 1.11857 15.3171 1.10879 15.4128 1.10056C15.5093 1.09225 15.6049 1.08532 15.7001 1.07932C15.7896 1.07365 15.8788 1.06886 15.9652 1.06422C15.9701 1.06396 15.9751 1.0637 15.98 1.06344C16.0713 1.0585 16.1601 1.05377 16.2417 1.04724C16.3247 1.04052 16.3937 1.03261 16.455 1.02065C16.5315 1.00576 16.61 0.991468 16.6877 0.978188C16.7654 0.96488 16.8427 0.952497 16.9199 0.940911C16.9972 0.929302 17.0737 0.918459 17.1505 0.908196C17.1753 0.904877 17.2013 0.901463 17.2259 0.898287C17.2372 0.896822 17.2486 0.89532 17.2599 0.893883C17.1097 0.892772 16.9538 0.891037 16.7927 0.888378C16.56 0.884534 16.3115 0.873995 16.0373 0.862425C15.5697 0.842688 15.0276 0.819936 14.3618 0.821531ZM19.5358 0.865099C19.4705 0.865938 19.3749 0.868457 19.2517 0.871705C19.2225 0.872473 19.1918 0.873385 19.1595 0.874222C19.1603 0.8743 19.1611 0.874301 19.1618 0.874379C19.2417 0.882598 19.3154 0.889762 19.395 0.896399C19.5369 0.908172 19.6747 0.918264 19.8139 0.926913C19.9536 0.935576 20.093 0.942672 20.2325 0.948303C20.3722 0.953939 20.5124 0.957985 20.6513 0.960414C20.7915 0.962832 20.9298 0.96377 21.0693 0.962616C21.1138 0.962252 21.1584 0.961671 21.203 0.960886C21.1034 0.952768 21.0001 0.946073 20.8909 0.939024C20.8037 0.933393 20.7128 0.9275 20.6171 0.920464C20.5805 0.917771 20.5362 0.913644 20.4846 0.908825C20.2798 0.889723 19.9584 0.859671 19.5358 0.865099ZM22.3164 0.87202C22.3488 0.869882 22.381 0.867952 22.4128 0.866358C22.5034 0.861826 22.5918 0.859235 22.6784 0.857235C22.7392 0.855843 22.7993 0.854844 22.8585 0.853775C22.8835 0.853323 22.9085 0.852828 22.9333 0.852359C22.9747 0.851577 23.0158 0.850642 23.0567 0.849685C22.7703 0.83997 22.4903 0.832522 22.1985 0.830182C22.1947 0.830151 22.1908 0.830211 22.1869 0.830182C22.2311 0.844421 22.2742 0.858374 22.3164 0.87202Z" fill="white"/>
</svg>
